HIERARCHY
ROOT Hips
{
	OFFSET	0.00	0.00	0.00
	CHANNELS 6 Xposition Yposition Zposition Zrotation Xrotation Yrotation
	JOINT LeftUpLeg
	{
		OFFSET	 0.126116	-0.014019	-0.065224
		CHANNELS 3 Zrotation Xrotation Yrotation
		JOINT LeftLeg
		{
			OFFSET	 0.000000	 0.000000	 0.569914
			CHANNELS 3 Zrotation Xrotation Yrotation
			JOINT LeftFoot
			{
				OFFSET	 0.000000	 0.000000	 0.544423
				CHANNELS 3 Zrotation Xrotation Yrotation
				JOINT LeftToeBase
				{
					OFFSET	 0.000000	 0.000000	 0.207117
					CHANNELS 3 Zrotation Xrotation Yrotation
					End Site
					{
						OFFSET	 0.000000	 0.000000	 0.207117
					}
				}
			}
		}
	}
	JOINT RightUpLeg
	{
		OFFSET	-0.124023	-0.008373	-0.065224
		CHANNELS 3 Zrotation Xrotation Yrotation
		JOINT RightLeg
		{
			OFFSET	 0.000000	 0.000000	 0.570047
			CHANNELS 3 Zrotation Xrotation Yrotation
			JOINT RightFoot
			{
				OFFSET	 0.000000	 0.000000	 0.544354
				CHANNELS 3 Zrotation Xrotation Yrotation
				JOINT RightToeBase
				{
					OFFSET	 0.000000	 0.000000	 0.207540
					CHANNELS 3 Zrotation Xrotation Yrotation
					End Site
					{
						OFFSET	 0.000000	 0.000000	 0.207540
					}
				}
			}
		}
	}
	JOINT Spine
	{
		OFFSET	 0.000184	-0.007763	 0.117403
		CHANNELS 3 Zrotation Xrotation Yrotation
		JOINT Spine1
		{
			OFFSET	 0.000000	 0.000000	 0.137269
			CHANNELS 3 Zrotation Xrotation Yrotation
			JOINT Spine2
			{
				OFFSET	 0.000000	 0.000000	 0.156879
				CHANNELS 3 Zrotation Xrotation Yrotation
				JOINT LeftShoulder
				{
					OFFSET	 0.080501	-0.002496	 0.160144
					CHANNELS 3 Zrotation Xrotation Yrotation
					JOINT LeftArm
					{
						OFFSET	 0.000000	 0.000000	 0.164363
						CHANNELS 3 Zrotation Xrotation Yrotation
						JOINT LeftForeArm
						{
							OFFSET	 0.000000	 0.000000	 0.364576
							CHANNELS 3 Zrotation Xrotation Yrotation
							JOINT LeftHand
							{
								OFFSET	 0.000000	 0.000000	 0.360812
								CHANNELS 3 Zrotation Xrotation Yrotation
								JOINT LeftHandIndex1
								{
									OFFSET	 0.000000	 0.000000	 0.086006
									CHANNELS 3 Zrotation Xrotation Yrotation
									JOINT LeftHandIndex2
									{
										OFFSET	 0.000000	 0.000000	 0.047236
										CHANNELS 3 Zrotation Xrotation Yrotation
										JOINT LeftHandIndex3
										{
											OFFSET	-0.004284	-0.000551	 0.038166
											CHANNELS 3 Zrotation Xrotation Yrotation
											End Site
											{
												OFFSET	-0.004284	-0.000551	 0.038166
											}
										}
									}
								}
							}
						}
					}
				}
				JOINT Neck
				{
					OFFSET	 0.000000	 0.000000	 0.176489
					CHANNELS 3 Zrotation Xrotation Yrotation
					JOINT Head
					{
						OFFSET	 0.000000	-0.001747	 0.077940
						CHANNELS 3 Zrotation Xrotation Yrotation
						End Site
						{
							OFFSET	 0.000000	-0.001747	 0.077940
						}
					}
				}
				JOINT RightShoulder
				{
					OFFSET	-0.080363	 0.000306	 0.159706
					CHANNELS 3 Zrotation Xrotation Yrotation
					JOINT RightArm
					{
						OFFSET	 0.000000	 0.000000	 0.164196
						CHANNELS 3 Zrotation Xrotation Yrotation
						JOINT RightForeArm
						{
							OFFSET	 0.000000	 0.000000	 0.365611
							CHANNELS 3 Zrotation Xrotation Yrotation
							JOINT RightHand
							{
								OFFSET	 0.000000	 0.000000	 0.360648
								CHANNELS 3 Zrotation Xrotation Yrotation
								JOINT RightHandIndex1
								{
									OFFSET	 0.000000	 0.000000	 0.069977
									CHANNELS 3 Zrotation Xrotation Yrotation
									JOINT RightHandIndex2
									{
										OFFSET	 0.000000	 0.000000	 0.052305
										CHANNELS 3 Zrotation Xrotation Yrotation
										JOINT RightHandIndex3
										{
											OFFSET	 0.009002	-0.000782	 0.042196
											CHANNELS 3 Zrotation Xrotation Yrotation
											End Site
											{
												OFFSET	 0.009002	-0.000782	 0.042196
											}
										}
									}
								}
							}
						}
					}
				}
			}
		}
	}
}
MOTION
Frames:    6
Frame Time: 0.03333334
-0.000002	 0.017668	 1.299053	-0.003203	 0.008005	 0.063324	-17.948500	-1.979527	-179.211600	 1.464666	-12.627270	-0.738443	-3.106743	 66.471760	-3.394047	-2.385833	 28.452760	 0.000004	 17.829240	-2.278183	 179.184200	-1.450354	-12.711030	 0.729840	 3.080137	 66.321200	 3.252540	 2.384658	 28.388730	 0.000004	-1.242730	 2.705009	 0.168975	-0.611837	 3.692746	-0.284937	 1.881840	-4.700547	 0.433641	-91.776170	 78.527470	 180.000000	 59.980610	 41.761460	-43.398470	-7.376176	 5.970174	-15.124520	-29.353560	-2.982652	-4.274266	-2.635965	 4.993658	 6.788941	-5.165319	 0.784187	 3.516649	-5.225038	 0.466231	 0.424329	-0.000002	-3.783157	-0.089647	 1.828368	 5.019473	-0.080160	 89.782220	 78.203900	 179.999900	 5.264118	 13.364720	 96.009200	-34.206240	-2.158807	 6.410296	 3.530556	-3.573045	-6.113091	 6.112037	 4.509576	-0.364401	 4.968462	 1.518543	-9.347576	 5.168945	 0.703820	 2.021906
-0.000010	 0.017593	 1.300372	-0.003195	 0.008011	 0.063318	-17.941180	-1.979554	-179.212100	 1.464664	-12.627370	-0.738445	-3.128268	 66.263510	-3.367959	-2.385833	 28.452760	 0.000004	 17.821950	-2.278272	 179.184700	-1.450353	-12.711280	 0.729851	 3.100296	 66.112970	 3.227766	 2.384658	 28.388730	 0.000004	-1.242732	 2.705009	 0.168978	-0.611839	 3.692724	-0.284960	 1.881843	-4.700534	 0.433652	-91.776220	 78.527450	-180.000000	 60.004470	 41.741600	-43.403220	-7.374330	 5.976689	-15.141530	-29.260370	-1.798650	-4.262575	-2.635965	 4.993658	 6.788941	-5.165319	 0.784187	 3.516649	-5.225038	 0.466231	 0.424329	-0.000002	-3.783157	-0.089647	 1.828368	 5.019472	-0.080160	 89.782130	 78.203850	 180.000000	 5.279659	 13.523980	 96.041720	-34.319800	-2.172614	 6.409055	 3.664433	-2.486968	-6.163230	 6.112037	 4.509576	-0.364401	 4.968462	 1.518543	-9.347576	 5.168945	 0.703820	 2.021906
-0.000018	 0.017527	 1.301513	-0.003191	 0.008013	 0.063329	-17.934720	-1.979537	-179.212600	 1.464667	-12.627400	-0.738449	-3.146315	 66.083580	-3.345836	-2.385833	 28.452760	 0.000004	 17.815570	-2.278144	 179.185100	-1.450356	-12.711070	 0.729839	 3.117167	 65.932900	 3.206833	 2.384658	 28.388730	 0.000004	-1.242734	 2.705009	 0.168973	-0.611842	 3.692707	-0.284956	 1.881844	-4.700521	 0.433650	-91.776180	 78.527430	 180.000000	 60.045280	 41.718930	-43.429600	-7.373022	 5.981421	-15.153880	-29.173820	-0.652218	-4.253821	-2.635965	 4.993658	 6.788941	-5.165319	 0.784187	 3.516649	-5.225038	 0.466231	 0.424329	-0.000002	-3.783157	-0.089647	 1.828368	 5.019472	-0.080160	 89.782080	 78.203890	-180.000000	 5.294145	 13.683710	 96.071350	-34.425320	-2.186456	 6.410959	 3.807919	-1.406592	-6.206007	 6.112037	 4.509576	-0.364401	 4.968462	 1.518543	-9.347576	 5.168945	 0.703820	 2.021906
-0.000026	 0.017447	 1.302817	-0.003204	 0.008007	 0.063326	-17.927200	-1.979508	-179.213200	 1.464667	-12.627410	-0.738450	-3.166589	 65.876400	-3.320813	-2.385833	 28.452760	 0.000004	 17.808210	-2.278143	 179.185600	-1.450352	-12.711160	 0.729842	 3.136213	 65.725740	 3.183077	 2.384658	 28.388730	 0.000004	-1.242728	 2.705009	 0.168974	-0.611836	 3.692727	-0.284945	 1.881846	-4.700537	 0.433645	-91.776140	 78.527450	 180.000000	 60.118490	 41.691990	-43.493560	-7.371782	 5.985809	-15.165410	-29.070930	 0.759872	-4.246526	-2.635965	 4.993658	 6.788941	-5.165319	 0.784187	 3.516649	-5.225038	 0.466231	 0.424329	-0.000002	-3.783157	-0.089647	 1.828369	 5.019472	-0.080160	 89.782160	 78.203890	 179.999900	 5.292149	 13.857830	 96.090720	-34.550400	-2.207847	 6.427259	 3.844259	 0.008703	-6.249735	 6.112037	 4.509576	-0.364401	 4.968462	 1.518543	-9.347576	 5.168945	 0.703820	 2.021906
-0.000025	 0.017359	 1.304111	-0.003205	 0.008009	 0.063324	-17.919510	-1.979475	-179.213700	 1.464669	-12.627410	-0.738448	-3.186400	 65.667590	-3.296095	-2.385833	 28.452760	 0.000004	 17.800580	-2.278056	 179.186100	-1.450352	-12.711070	 0.729837	 3.154718	 65.516880	 3.159634	 2.384658	 28.388730	 0.000004	-1.242727	 2.705009	 0.168975	-0.611834	 3.692730	-0.284973	 1.881844	-4.700538	 0.433657	-91.776150	 78.527490	 180.000000	 60.224210	 41.672820	-43.607150	-7.371256	 5.988107	-15.171330	-28.968880	 2.207959	-4.243021	-2.635965	 4.993658	 6.788941	-5.165319	 0.784187	 3.516649	-5.225038	 0.466231	 0.424329	-0.000002	-3.783157	-0.089647	 1.828368	 5.019472	-0.080160	 89.782100	 78.203890	 180.000000	 5.225627	 13.974190	 96.070100	-34.662620	-2.234471	 6.463206	 3.474387	 1.629813	-6.278548	 6.112037	 4.509576	-0.364401	 4.968462	 1.518543	-9.347576	 5.168945	 0.703820	 2.021906
-0.000007	 0.017264	 1.305172	-0.003192	 0.008016	 0.063331	-17.912590	-1.979451	-179.214300	 1.464671	-12.627410	-0.738448	-3.203483	 65.482370	-3.274563	-2.385833	 28.452760	 0.000004	 17.793700	-2.278075	 179.186600	-1.450353	-12.711160	 0.729844	 3.170708	 65.331640	 3.139189	 2.384658	 28.388730	 0.000004	-1.242733	 2.705010	 0.168971	-0.611840	 3.692702	-0.284984	 1.881853	-4.700518	 0.433663	-91.776180	 78.527420	 180.000000	 60.355690	 41.672190	-43.772640	-7.371875	 5.985759	-15.165270	-28.885920	 3.431320	-4.243776	-2.635965	 4.993658	 6.788941	-5.165319	 0.784187	 3.516649	-5.225038	 0.466231	 0.424329	-0.000002	-3.783157	-0.089647	 1.828369	 5.019472	-0.080160	 89.782050	 78.203890	-180.000000	 5.130618	 14.240600	 96.418500	-34.484550	-1.987553	 5.812552	 2.790286	 3.024370	-6.264041	 6.112037	 4.509576	-0.364401	 4.968462	 1.518543	-9.347576	 5.168945	 0.703820	 2.021906
